<?xml version="1.0" standalone="no"?>
<!DOCTYPE svg PUBLIC "-//W3C//DTD SVG 20010904//EN"
 "http://www.w3.org/TR/2001/REC-SVG-20010904/DTD/svg10.dtd">
<svg version="1.0" xmlns="http://www.w3.org/2000/svg"
 width="2617.000000pt" height="2617.000000pt" viewBox="0 0 2617.000000 2617.000000"
 preserveAspectRatio="xMidYMid meet">
<metadata>
Created by potrace 1.11, written by Peter Selinger 2001-2013
</metadata>
<g transform="translate(0.000000,2617.000000) scale(0.100000,-0.100000)"
fill="#000000" stroke="none">
<path d="M3483 14658 l3 -1923 22 -140 c61 -376 145 -657 287 -967 245 -536
638 -1014 1126 -1370 496 -362 1090 -586 1719 -649 135 -14 443 -16 1743 -11
l797 2 0 430 0 429 -1252 3 c-1249 4 -1253 4 -1377 26 -368 67 -662 176 -957
357 -688 421 -1145 1138 -1239 1944 -13 107 -15 407 -15 1958 l0 1833 -430 0
-430 0 3 -1922z"/>
<path d="M12450 16573 c-490 -29 -1021 -182 -1455 -420 -280 -153 -531 -340
-764 -567 -599 -586 -947 -1305 -1043 -2151 -18 -166 -15 -570 6 -745 97 -803
440 -1514 1001 -2075 567 -567 1263 -903 2085 -1007 159 -20 650 -17 814 5
666 90 1248 335 1761 743 141 113 426 398 539 539 178 225 349 502 460 750 29
66 241 635 469 1265 228 630 432 1183 452 1230 286 665 879 1208 1571 1439
288 95 525 134 834 134 430 1 788 -82 1165 -268 280 -138 487 -286 705 -504
406 -406 656 -908 746 -1493 11 -68 18 -204 21 -400 5 -277 4 -307 -17 -425
-43 -248 -121 -482 -241 -723 -364 -729 -1043 -1250 -1839 -1410 -80 -16 -196
-34 -258 -41 -146 -15 -532 -6 -667 15 -142 23 -371 81 -500 128 -244 88 -548
258 -755 423 -105 83 -287 262 -382 375 -162 192 -331 476 -423 710 -20 52
-40 98 -44 102 -3 4 -113 -206 -243 -466 l-237 -473 50 -78 c125 -194 285
-392 464 -570 903 -903 2210 -1239 3444 -885 341 98 651 243 956 445 201 134
337 246 528 435 l167 166 0 -593 0 -593 430 0 430 0 0 1860 c0 1606 -2 1881
-15 2007 -115 1090 -746 2071 -1697 2634 -1073 637 -2420 650 -3503 34 -287
-163 -490 -320 -745 -575 -259 -258 -428 -480 -594 -778 -132 -237 -125 -218
-598 -1522 -450 -1242 -440 -1216 -525 -1380 -530 -1026 -1677 -1585 -2819
-1375 -886 164 -1635 782 -1967 1625 -201 510 -237 1078 -102 1610 240 945
984 1682 1935 1913 204 50 375 70 610 70 321 0 546 -35 845 -134 332 -111 648
-295 924 -539 71 -63 95 -79 102 -69 5 8 9 18 9 22 0 4 21 54 47 110 65 144
234 436 310 537 51 67 61 87 51 95 -8 5 -56 44 -108 86 -664 532 -1525 803
-2390 752z"/>
</g>
</svg>
